<svg width="25" height="25" viewBox="0 0 25 25" fill="none" xmlns="http://www.w3.org/2000/svg">
<g clip-path="url(#clip0_106_44)">
<path d="M12.5 0C6.91751 0 2.37587 4.54165 2.37587 10.1241C2.37587 12.4276 3.13075 14.597 4.55894 16.3978C6.40818 18.7294 11.7858 24.2654 12.0138 24.4999L12.4999 25L12.9862 24.5C13.2143 24.2653 18.5935 18.7281 20.443 16.3957C21.8699 14.5964 22.6241 12.4278 22.6241 10.1241C22.6241 4.54165 18.0825 0 12.5 0ZM19.3804 15.553C17.8915 17.4305 13.893 21.6072 12.5 23.0518C11.1071 21.6072 7.1101 17.4318 5.62156 15.555C4.38548 13.9964 3.73211 12.1185 3.73211 10.1241C3.73211 5.28948 7.66535 1.35624 12.5 1.35624C17.3346 1.35624 21.2679 5.28948 21.2678 10.1241C21.2678 12.1186 20.6151 13.9959 19.3804 15.553Z" fill="white"/>
<path d="M12.5 4.01904C9.19553 4.01904 6.50719 6.70738 6.50719 10.0119C6.50719 13.3163 9.1956 16.0047 12.5 16.0047C15.8044 16.0047 18.4928 13.3163 18.4928 10.0119C18.4928 6.70745 15.8045 4.01904 12.5 4.01904ZM12.5 14.6484C9.94336 14.6484 7.86343 12.5684 7.86343 10.0119C7.86343 7.45522 9.94343 5.37528 12.5 5.37528C15.0566 5.37528 17.1365 7.45528 17.1366 10.0119C17.1366 12.5685 15.0567 14.6484 12.5 14.6484Z" fill="white"/>
</g>
<defs>
<clipPath id="clip0_106_44">
<rect width="25" height="25" fill="white"/>
</clipPath>
</defs>
</svg>
