<svg width="31" height="30" viewBox="0 0 31 30" fill="none" xmlns="http://www.w3.org/2000/svg">
<path d="M15.5 19.9997C14.8027 19.9997 14.2375 20.5594 14.2375 21.2497C14.2375 21.9401 14.8027 22.4997 15.5 22.4997C16.1972 22.4997 16.7625 21.9401 16.7625 21.2497C16.7625 20.5594 16.1972 19.9997 15.5 19.9997ZM15.5 19.9997V7.5M15.5 21.2497L15.5089 21.2586M20.55 21.2497C20.55 24.0112 18.2889 26.2497 15.5 26.2497C12.7109 26.2497 10.45 24.0112 10.45 21.2497C10.45 19.9817 10.9267 18.8239 11.7125 17.9425V7.5C11.7125 5.42894 13.4081 3.75 15.5 3.75C17.5918 3.75 19.2875 5.42894 19.2875 7.5V17.9425C20.0732 18.8239 20.55 19.9817 20.55 21.2497Z" stroke="black" stroke-linecap="round" stroke-linejoin="round"/>
</svg>
