<svg width="25" height="25" viewBox="0 0 25 25" fill="none" xmlns="http://www.w3.org/2000/svg">
<path d="M2.15002 7.38896H9.62502C11.2128 7.38896 12.5 5.95874 12.5 4.19448C12.5 2.43022 11.2128 1 9.62502 1C8.03721 1 6.75002 2.43022 6.75002 4.19448V4.65083" stroke="white" stroke-linecap="round"/>
<path d="M3.29999 15.0557H19.975C22.1979 15.0557 24 17.058 24 19.5279C24 21.9979 22.1979 24.0002 19.975 24.0002C17.752 24.0002 15.95 21.9979 15.95 19.5279V18.889" stroke="white" stroke-linecap="round"/>
<path d="M1 11.2229H19.975C22.1979 11.2229 24 9.22056 24 6.75059C24 4.28062 22.1979 2.27832 19.975 2.27832C17.752 2.27832 15.95 4.28062 15.95 6.75059V7.38949" stroke="white" stroke-linecap="round"/>
</svg>
